<svg width="108" height="108" viewBox="0 0 108 108" fill="none" xmlns="http://www.w3.org/2000/svg">
<path d="M99.2174 2H47.2174C43.4715 2 40.4348 5.03668 40.4348 8.78261V99.2174C40.4348 102.963 43.4715 106 47.2174 106H99.2174C102.963 106 106 102.963 106 99.2174V8.78261C106 5.03668 102.963 2 99.2174 2Z" stroke="#292929" stroke-width="4" stroke-linejoin="round"/>
<path d="M67.5652 96.9565H78.8695" stroke="#292929" stroke-width="4" stroke-linejoin="round"/>
<path d="M99.2174 26.8695H93.927C93.4522 29.1304 92.7513 30.306 91.8696 31.866L97.2052 37.2017L89.2018 45.2052L83.8661 39.8695C82.3061 40.7512 80.6331 41.4521 78.8696 41.9269V49.4782H67.5652V41.9269C65.8018 41.4521 64.1287 40.7512 62.5687 39.8695L57.2331 45.2052L49.2296 37.2017L54.5652 31.866C53.6835 30.306 52.9826 29.1304 52.5078 26.8695H47.2174" stroke="#292929" stroke-width="4" stroke-linejoin="round"/>
<path d="M65.44 20.0869C65.44 24.4504 68.9896 28 73.3531 28C77.7165 28 81.2661 24.4504 81.2661 20.0869" stroke="#292929" stroke-width="4" stroke-linejoin="round"/>
<path d="M40.4348 13.3043H106" stroke="#292929" stroke-width="4" stroke-linejoin="round"/>
<path d="M40.4348 87.9131H106" stroke="#292929" stroke-width="4" stroke-linejoin="round"/>
<path d="M35.913 20.0869H29.1304V27.7513C26.6435 28.3843 24.3148 29.3791 22.1443 30.6452L16.7183 25.2191L7.13217 34.8052L12.5583 40.2313C11.2922 42.3791 10.32 44.7304 9.66435 47.2173H2V60.7826H9.66435C10.2974 63.2695 11.2922 65.5982 12.5583 67.7687L7.13217 73.1947L16.7183 82.7808L22.1443 77.3547C24.2922 78.6208 26.6435 79.593 29.1304 80.2487V87.913H35.913" stroke="#292929" stroke-width="4" stroke-linejoin="round"/>
<path d="M35.913 67.5652C28.4295 67.5652 22.3478 61.4835 22.3478 54C22.3478 46.5166 28.4295 40.4348 35.913 40.4348" stroke="#292929" stroke-width="4" stroke-linejoin="round"/>
</svg>
