<svg width="105" height="155" viewBox="0 0 105 155" fill="none" xmlns="http://www.w3.org/2000/svg">
<path d="M78.1277 106.17V138.723" stroke="#292929" stroke-width="4" stroke-linejoin="round"/>
<path d="M87.8936 132.213L61.8511 148.489V155" stroke="#292929" stroke-width="4" stroke-linejoin="round"/>
<path d="M26.0425 106.17V138.723" stroke="#292929" stroke-width="4" stroke-linejoin="round"/>
<path d="M97.6596 145.234V132.213C97.6596 128.958 96.1621 127.655 94.4043 125.702L84.6383 115.936" stroke="#292929" stroke-width="4" stroke-linejoin="round"/>
<path d="M6.51062 145.234V132.213C6.51062 128.958 8.00807 127.655 9.76594 125.702L19.5319 115.936" stroke="#292929" stroke-width="4" stroke-linejoin="round"/>
<path d="M16.2766 132.213L42.3192 148.489V155" stroke="#292929" stroke-width="4" stroke-linejoin="round"/>
<path d="M87.8936 63.8511V83.383C87.8936 87.6475 86.8845 96.3066 84.6383 99.6596C82.3921 103.013 71.617 112.681 71.617 112.681C66.9619 117.141 61.0372 119.192 55.3404 119.192H48.8298C43.133 119.192 37.2083 117.141 32.5532 112.681C32.5532 112.681 21.7781 103.013 19.5319 99.6596C17.2858 96.3066 16.2766 87.6475 16.2766 83.383V63.8511" stroke="#292929" stroke-width="4" stroke-linejoin="round"/>
<path d="M42.3192 31.2979V2H61.8511V31.2979" stroke="#292929" stroke-width="4" stroke-linejoin="round"/>
<path d="M104.17 60.5957H0" stroke="#292929" stroke-width="4" stroke-linejoin="round"/>
<path d="M71.617 21.532V5.25537C84.3127 12.352 94.4042 21.4018 94.4042 37.8086V44.3192L100.915 47.5745V54.0852" stroke="#292929" stroke-width="4" stroke-linejoin="round"/>
<path d="M32.5532 21.532V5.25537C19.5319 12.352 9.76595 21.4018 9.76595 37.8086V44.3192L3.25531 47.5745V54.0852" stroke="#292929" stroke-width="4" stroke-linejoin="round"/>
</svg>
