<svg width="108" height="127" viewBox="0 0 108 127" fill="none" xmlns="http://www.w3.org/2000/svg">
<path d="M48.4667 10.2L53.9333 2L59.4 10.2V18.4L53.9333 26.6L48.4667 18.4V10.2Z" stroke="#292929" stroke-width="4" stroke-linejoin="round"/>
<path d="M67.6 45.7334L105.867 111.224L98.022 125L56.6667 53.9334" stroke="#292929" stroke-width="4" stroke-linejoin="round"/>
<path d="M40.2667 45.7334L2 111.224L9.84465 125L51.2 53.9334" stroke="#292929" stroke-width="4" stroke-linejoin="round"/>
<path d="M67.6074 40.5879C67.7618 33.0265 61.7694 26.7718 54.2231 26.6177C46.6768 26.4636 40.4341 32.4684 40.2797 40.0298C40.1253 47.5912 46.1176 53.8459 53.6639 54C61.2102 54.1541 67.4529 48.1493 67.6074 40.5879Z" stroke="#292929" stroke-width="4" stroke-linejoin="round"/>
<path d="M53.9333 75.8V100.4" stroke="#292929" stroke-width="4" stroke-linecap="round" stroke-linejoin="round"/>
<path d="M100.4 56.6667C92.1453 74.4334 74.4333 86.7334 53.9333 86.7334C33.4333 86.7334 15.7213 74.4607 7.46667 56.6667" stroke="#292929" stroke-width="4" stroke-linecap="round" stroke-linejoin="round"/>
</svg>
