<svg width="106" height="115" viewBox="0 0 106 115" fill="none" xmlns="http://www.w3.org/2000/svg">
<path d="M15.6 9.7986V4.59953C15.6 3.16979 16.77 2 18.2 2H101.4C102.83 2 104 3.16979 104 4.59953V56.5902" stroke="#292929" stroke-width="4" stroke-linejoin="round"/>
<path d="M2.59998 108.581V17.5972C2.59998 16.1675 3.76998 14.9977 5.19998 14.9977H88.4C89.83 14.9977 91 16.1675 91 17.5972V77.3864" stroke="#292929" stroke-width="4" stroke-linejoin="round"/>
<path d="M0 35.7939H83.2" stroke="#292929" stroke-width="4" stroke-linejoin="round"/>
<path d="M10.4 25.3958H15.6" stroke="#292929" stroke-width="4" stroke-linejoin="round"/>
<path d="M20.8 25.3958H26" stroke="#292929" stroke-width="4" stroke-linejoin="round"/>
<path d="M31.2 25.3958H36.4" stroke="#292929" stroke-width="4" stroke-linejoin="round"/>
<path d="M91 82.5854V87.7845" stroke="#292929" stroke-width="4" stroke-linejoin="round"/>
<path d="M104 72.1874V77.3864" stroke="#292929" stroke-width="4" stroke-linejoin="round"/>
<path d="M104 61.7892V66.9882" stroke="#292929" stroke-width="4" stroke-linejoin="round"/>
<path d="M78 73.5912L73.762 63.349L65.832 66.6244C64.246 64.3888 62.296 62.4912 60.138 60.9314L63.414 53.0029L53.17 48.7656L49.894 56.6942C47.268 56.2523 44.564 56.2263 41.86 56.6942L38.584 48.7656L28.34 53.0029L31.616 60.9314C29.38 62.5171 27.482 64.4668 25.922 66.6244L17.992 63.349L13.754 73.5912L21.684 76.8666C21.242 79.4921 21.216 82.1956 21.684 84.8991L13.754 88.1745L17.992 98.4167L25.922 95.1413C27.508 97.3769 29.458 99.2745 31.616 100.834L28.34 108.763L38.584 113L41.86 105.071C44.486 105.513 47.19 105.539 49.894 105.071L53.17 113L63.414 108.763L60.138 100.834C62.374 99.2485 64.272 97.2989 65.832 95.1413L73.762 98.4167L78 88.1745L70.07 84.8991C70.512 82.2736 70.538 79.5701 70.07 76.8666L78 73.5912Z" stroke="#292929" stroke-width="4" stroke-linejoin="round"/>
<path d="M55.848 76.7886C58.136 82.2736 55.51 88.5904 50.024 90.852C44.538 93.1396 38.22 90.5141 35.958 85.0291C33.67 79.5441 36.296 73.2272 41.782 70.9656C47.268 68.704 53.586 71.3036 55.848 76.7886Z" stroke="#292929" stroke-width="4" stroke-linejoin="round"/>
</svg>
