<svg width="108" height="108" viewBox="0 0 108 108" fill="none" xmlns="http://www.w3.org/2000/svg">
<path d="M34.6873 81.2218L26.7187 73.2533V69.7639L30.2328 66.7448C30.406 65.6806 30.7525 64.9383 30.9257 63.8741C30.604 63.1812 30.505 62.5378 30.3318 61.8696C29.4409 61.2014 28.8717 60.7312 27.9808 60.0631L24.046 60.1373C23.0561 59.1722 22.5365 58.6277 21.5466 57.6378L21.5961 49.9662C22.6107 49.0011 23.1799 48.4814 24.1945 47.5163L27.9066 47.6895C28.847 47.0213 29.4656 46.5759 30.406 45.883C30.5792 45.2643 30.7772 44.6951 31.0742 44.0269C30.901 42.9628 30.307 42.2204 30.1338 41.1563L26.7435 38.2361V34.7468L34.712 26.7782H38.2014L41.1215 30.1933C42.1609 30.3665 42.9281 30.7378 43.9674 30.8862C44.6356 30.5645 45.2543 30.4903 45.8977 30.3418C46.5906 29.4262 47.0361 28.8817 47.729 27.9661L47.6548 24.0808C48.6446 23.0909 49.1643 22.5712 50.1542 21.5813L57.8258 21.6308C58.791 22.6454 59.3106 23.1899 60.2758 24.2045L60.1273 28.0156C60.7955 28.9312 61.2409 29.5746 61.9091 30.4903C62.5525 30.6882 63.1464 30.8862 63.8394 31.2079C64.9035 31.0347 65.6707 30.4408 66.71 30.2676L69.7292 26.7782H73.2185L81.1871 34.7468V38.2361L77.7225 41.2305C77.5245 42.2451 77.1286 43.0123 76.9306 44.0269C77.2523 44.7199 77.3265 45.3138 77.475 45.9325C78.3907 46.6254 78.9599 47.0956 79.8755 47.8132L83.7113 47.7143C84.7012 48.7042 85.2456 49.2238 86.2355 50.2137L86.1612 57.8606C85.1466 58.8257 84.5774 59.3454 83.5628 60.3105L79.826 60.1373C78.8856 60.8055 78.2669 61.2509 77.3265 61.9191C77.1533 62.5378 76.9553 63.107 76.6336 63.7504C76.8068 64.8145 77.4008 65.5569 77.574 66.6211L81.1871 69.7392V73.2285L73.2185 81.1971H69.7292L66.611 77.584C65.5717 77.4108 64.8045 77.0396 63.7651 76.8911C63.097 77.2128 62.4783 77.287 61.8349 77.4355C61.1419 78.3512 60.6965 78.8956 60.0036 79.8112L60.0778 83.6965C59.0879 84.6864 58.5682 85.2061 57.5784 86.196L49.9315 86.1465C48.9663 85.1071 48.4467 84.5627 47.4815 83.5233L47.6795 79.8855C46.9866 78.9451 46.5411 78.3017 45.8482 77.3613C45.2543 77.1881 44.6604 76.9901 43.9922 76.6684C42.9776 76.8664 42.2351 77.485 41.2205 77.683L38.2261 81.1723H34.7368L34.6873 81.2218Z" stroke="#292929" stroke-width="4" stroke-miterlimit="10"/>
<path d="M53.9405 63.8988C59.4075 63.8988 63.8394 59.4669 63.8394 53.9999C63.8394 48.5329 59.4075 44.1011 53.9405 44.1011C48.4735 44.1011 44.0417 48.5329 44.0417 53.9999C44.0417 59.4669 48.4735 63.8988 53.9405 63.8988Z" stroke="#292929" stroke-width="4" stroke-miterlimit="10"/>
<path d="M24.244 83.6965H9.39575V98.5448" stroke="#292929" stroke-width="4" stroke-miterlimit="10"/>
<path d="M6.59931 75.0845C-2.11167 56.0045 1.60038 32.8165 17.3148 17.1021C37.5332 -3.11633 70.5211 -2.99258 90.7147 17.2258L97.3964 23.9075" stroke="#292929" stroke-width="4" stroke-miterlimit="10"/>
<path d="M101.282 32.9155C109.993 51.9955 106.281 75.1836 90.5663 90.898C70.3479 111.116 37.36 110.993 17.1663 90.7743L10.4846 84.0926" stroke="#292929" stroke-width="4" stroke-miterlimit="10"/>
<path d="M83.637 24.3036H98.4853V9.45532" stroke="#292929" stroke-width="4" stroke-miterlimit="10"/>
</svg>
