<svg width="108" height="108" viewBox="0 0 108 108" fill="none" xmlns="http://www.w3.org/2000/svg">
<path d="M71.3168 36.6584H36.6337V71.3416H71.3168V36.6584Z" stroke="#292929" stroke-width="4" stroke-linejoin="round"/>
<path d="M26.7242 44.0906H36.6337" stroke="#292929" stroke-width="4" stroke-linejoin="round"/>
<path d="M26.7242 54H36.6337" stroke="#292929" stroke-width="4" stroke-linejoin="round"/>
<path d="M26.7242 63.9094H36.6337" stroke="#292929" stroke-width="4" stroke-linejoin="round"/>
<path d="M71.3168 44.0906H81.2263" stroke="#292929" stroke-width="4" stroke-linejoin="round"/>
<path d="M71.3168 54H81.2263" stroke="#292929" stroke-width="4" stroke-linejoin="round"/>
<path d="M71.3168 63.9094H81.2263" stroke="#292929" stroke-width="4" stroke-linejoin="round"/>
<path d="M53.9752 71.3416V81.251" stroke="#292929" stroke-width="4" stroke-linejoin="round"/>
<path d="M63.8847 71.3416V81.251" stroke="#292929" stroke-width="4" stroke-linejoin="round"/>
<path d="M44.0658 71.3416V81.251" stroke="#292929" stroke-width="4" stroke-linejoin="round"/>
<path d="M53.9752 26.749V36.6585" stroke="#292929" stroke-width="4" stroke-linejoin="round"/>
<path d="M63.8847 26.749V36.6585" stroke="#292929" stroke-width="4" stroke-linejoin="round"/>
<path d="M44.0658 26.749V36.6585" stroke="#292929" stroke-width="4" stroke-linejoin="round"/>
<path d="M106 61.4321V46.5679H95.3969C94.3068 40.4736 91.9286 34.8499 88.5346 29.9695L96.0162 22.4879L85.5122 11.9838L78.0305 19.4655C73.1501 16.0715 67.5017 13.6932 61.4321 12.6031V2H46.5679V12.6031C40.4736 13.6932 34.8499 16.0715 29.9695 19.4655L22.4879 11.9838L11.9838 22.4879L19.4655 29.9695C16.0715 34.8499 13.6932 40.4983 12.6031 46.5679H2V61.4321H12.6031C13.6932 67.5264 16.0715 73.1501 19.4655 78.0305L11.9838 85.5121L22.4879 96.0162L29.9695 88.5345C34.8499 91.9285 40.4984 94.3068 46.5679 95.3969V106H61.4321V95.3969C67.5265 94.3068 73.1501 91.9285 78.0305 88.5345L85.5122 96.0162L96.0162 85.5121L88.5346 78.0305C91.9286 73.1501 94.3068 67.5017 95.3969 61.4321H106Z" stroke="#292929" stroke-width="4" stroke-linejoin="round"/>
<path d="M61.4074 46.5679H46.5431V61.4321H61.4074V46.5679Z" stroke="#292929" stroke-width="4" stroke-linejoin="round"/>
</svg>
