<svg width="109" height="99" viewBox="0 0 109 99" fill="none" xmlns="http://www.w3.org/2000/svg">
<path d="M40.2055 27.6231L44.5901 17.0498L51.03 19.1964C52.8113 16.6844 54.9807 14.5606 57.4014 12.825L55.2548 6.38513L65.8281 2.00049L68.8653 8.07501C71.8112 7.57261 74.8485 7.57261 77.8858 8.07501L80.923 2.00049L91.4963 6.38513L89.3497 12.825C91.8617 14.6063 93.9855 16.7757 95.7211 19.1964L102.161 17.0498L106.546 27.6231L100.471 30.6603C100.973 33.6063 100.973 36.6435 100.471 39.6808L106.546 42.718L102.161 53.2914L95.7211 51.1447C93.9399 53.6567 91.7704 55.7806 89.3497 57.5161L91.4963 63.956L80.923 68.3406L77.8858 62.2661C74.9399 62.7685 71.9026 62.7685 68.8653 62.2661L65.8281 68.3406L55.2548 63.956L57.4014 57.5161C54.8894 55.7349 52.7656 53.5654 51.03 51.1447L44.5901 53.2914L40.2055 42.718L46.28 39.6808C45.7776 36.7349 45.7776 33.6976 46.28 30.6603L40.2055 27.6231Z" stroke="#292929" stroke-width="4" stroke-linejoin="round"/>
<path d="M63.2247 39.3612C65.554 44.979 71.9711 47.628 77.5889 45.2987C83.2067 42.9694 85.8558 36.5523 83.5493 30.9345C81.2199 25.3167 74.8029 22.6677 69.1851 24.997C63.5673 27.3263 60.9182 33.7434 63.2247 39.3612Z" stroke="#292929" stroke-width="4" stroke-linejoin="round"/>
<path d="M31.5962 32.5787C29.9976 28.7193 25.5673 26.8924 21.6851 28.4909C17.8029 30.0895 15.976 34.5198 17.5745 38.3792C18.2368 39.9777 19.3786 41.2337 20.7945 42.033" stroke="#292929" stroke-width="4" stroke-linejoin="round"/>
<path d="M3.32449 69.1399L6.31611 61.9007L11.9111 64.23C13.03 62.6543 14.4002 61.3069 15.9303 60.2108L13.6009 54.6158L20.8401 51.6243L23.1694 57.2192C25.0192 56.8995 26.9375 56.8995 28.8558 57.2192L31.1851 51.6243L38.4243 54.6158L36.095 60.2108C37.6707 61.3298 39.018 62.7 40.1142 64.23L45.7091 61.9007L48.7007 69.1399L43.1057 71.4692C43.4254 73.319 43.4254 75.2372 43.1057 77.1555L48.7007 79.4848L45.7091 86.724L40.1142 84.3947C38.9952 85.9704 37.625 87.3178 36.095 88.4139L38.4243 94.0089L31.1851 97.0005L28.8558 91.4055C27.006 91.7252 25.0877 91.7252 23.1694 91.4055L20.8401 97.0005L13.6009 94.0089L15.9303 88.4139C14.3545 87.2949 13.0072 85.9247 11.9111 84.3947L6.31611 86.724L3.32449 79.4848L8.91947 77.1555C8.59976 75.3057 8.59976 73.3875 8.91947 71.4692L3.32449 69.1399Z" stroke="#292929" stroke-width="4" stroke-linejoin="round"/>
<path d="M11.363 46.0294L5.99639 48.6328L2.61656 41.7133L7.98316 39.11C7.5721 37.3059 7.43506 35.4333 7.64059 33.5379L2 31.5968L4.512 24.3119L10.1526 26.253C11.1574 24.6316 12.4363 23.2386 13.875 22.0739L11.2716 16.7073L18.1911 13.3275L20.7945 18.6941C22.5985 18.2831 24.4711 18.146 26.3666 18.3516L28.3077 12.7109L35.5925 15.223L33.6514 20.8636" stroke="#292929" stroke-width="4" stroke-linejoin="round"/>
<path d="M18.9904 71.3778C17.3918 75.26 19.2187 79.7131 23.1009 81.3117C26.9832 82.9103 31.4363 81.0833 33.0348 77.2011C34.6334 73.3189 32.8065 68.8658 28.9243 67.2672C25.0421 65.6687 20.5889 67.4956 18.9904 71.3778Z" stroke="#292929" stroke-width="4" stroke-linejoin="round"/>
</svg>
