<svg width="109" height="97" viewBox="0 0 109 97" fill="none" xmlns="http://www.w3.org/2000/svg">
<path d="M42.8015 2C32.2314 2 24.0614 9.20026 22.4129 14.752C14.9944 15.746 10.0245 22.1462 10.0245 30.098C10.0245 30.7041 10.073 31.3102 10.1215 31.9163C5.32134 34.2679 2 40.4257 2 47.6744C2 52.2807 3.84249 57.5658 7.0911 60.6689C5.39407 68.3056 8.32751 83.4091 23.9402 82.0273C28.401 92.1852 36.8134 97.1066 53.0322 94.1489V2.02423H42.7773L42.8015 2Z" stroke="#292929" stroke-width="4" stroke-linejoin="round"/>
<path d="M37.6862 30.0495C28.8616 30.0495 22.3887 27.9161 22.3887 14.752" stroke="#292929" stroke-width="4" stroke-linejoin="round"/>
<path d="M22.4128 45.3471C26.4857 48.0139 33.3951 46.9714 37.1043 43.0682C41.9772 37.9286 47.4805 37.468 52.9837 43.2379" stroke="#292929" stroke-width="4" stroke-linejoin="round"/>
<path d="M52.9837 19.8431C46.6804 22.2432 39.965 20.3764 37.6862 14.752" stroke="#292929" stroke-width="4" stroke-linejoin="round"/>
<path d="M53.0565 72.7179C47.2381 70.536 42.7288 73.3967 40.9348 77.5665" stroke="#292929" stroke-width="4" stroke-linejoin="round"/>
<path d="M27.504 68.2812C23.4311 67.6508 19.8673 63.8204 19.8673 60.6445" stroke="#292929" stroke-width="4" stroke-linejoin="round"/>
<path d="M23.9645 82.0029C23.9645 72.6935 29.2495 60.6445 42.8016 60.6445" stroke="#292929" stroke-width="4" stroke-linejoin="round"/>
<path d="M60.3295 2H67.6025V13.0307C72.4511 13.952 76.0391 15.6005 79.5302 17.8309L87.5305 10.0245L98.44 20.8371L90.6579 28.9343C92.8883 32.4254 94.5853 35.9407 95.5065 40.7893H106.416V55.3353H95.5065C94.5853 60.184 92.9368 63.5296 90.7064 67.0206L98.5127 74.8755L87.7002 85.7122L79.5302 77.9059C76.0391 80.1363 72.4511 81.809 67.6025 82.7303V94.1247H60.3295" stroke="#292929" stroke-width="4" stroke-linejoin="round"/>
<path d="M60.3295 67.1176C71.045 67.1176 79.7241 58.5113 79.7241 47.8927C79.7241 37.2741 71.045 28.6677 60.3295 28.6677" stroke="#292929" stroke-width="4" stroke-linejoin="round"/>
<path d="M14.752 38.1226C18.9703 38.1226 22.3886 41.1045 22.3886 45.3471C22.3886 48.6684 20.2552 51.9413 17.2975 52.9837" stroke="#292929" stroke-width="4" stroke-linejoin="round"/>
</svg>
