<svg width="109" height="123" viewBox="0 0 109 123" fill="none" xmlns="http://www.w3.org/2000/svg">
<path d="M54.6843 71.28L89.6736 106.269C92.774 109.37 98.4275 108.588 102.57 104.42L102.752 104.237C106.895 100.095 107.52 94.6497 104.42 91.5233L89.6736 76.7772" stroke="#292929" stroke-width="4" stroke-linejoin="round"/>
<path d="M80.4769 49.1609L82.3267 47.3111C83.3427 46.295 83.3427 44.6537 82.3267 43.6376L76.8034 38.1143C75.7873 37.0983 74.146 37.0983 73.1299 38.1143L69.4564 41.7878" stroke="#292929" stroke-width="4" stroke-linejoin="round"/>
<path d="M63.881 47.337L69.4043 41.8138C70.4204 40.7977 70.4204 39.1564 69.4043 38.1403L63.881 32.617C62.8649 31.601 61.2236 31.601 60.2075 32.617L54.6843 38.1403" stroke="#292929" stroke-width="4" stroke-linejoin="round"/>
<path d="M68.3101 66.5903L73.1038 71.306C74.1199 72.322 75.7613 72.296 76.7773 71.306L89.6997 58.3836C90.7158 57.3675 90.7158 55.7262 89.6997 54.7101L84.1764 49.1869C83.1603 48.1708 81.519 48.1708 80.5029 49.1869L73.1299 56.5599" stroke="#292929" stroke-width="4" stroke-linejoin="round"/>
<path d="M52.8345 102.596L56.508 98.9223C59.6865 95.7439 66.7729 99.7039 71.254 95.2488C75.7091 90.7938 76.7773 89.7256 76.7773 89.7256" stroke="#292929" stroke-width="4" stroke-linejoin="round"/>
<path d="M49.161 80.4768C57.1072 72.5306 57.4459 59.2956 51.0107 52.8344C52.2092 54.0329 55.2314 57.0551 58.3838 60.2075C64.7668 66.5905 73.4164 62.448 74.9536 58.3577C72.9475 56.3516 54.6842 38.0884 54.6842 38.0884C52.2352 35.6394 49.8905 35.2486 46.0085 35.8478C42.1266 36.447 35.8999 37.0723 33.7375 38.6615C31.5751 40.2508 29.6472 48.197 29.6472 54.2934C29.6472 61.6925 28.6311 67.8671 27.0679 69.4043L23.3944 73.0778" stroke="#292929" stroke-width="4" stroke-linejoin="round"/>
<path d="M89.6736 58.3838L97.0467 65.7568C98.0627 66.7729 98.0627 68.4142 97.0467 69.4303L84.1503 82.3266C83.1343 83.3427 81.4929 83.3427 80.4769 82.3266L74.9536 76.8033C73.9375 75.7873 73.9375 74.1459 74.9536 73.1298L76.8034 71.2801" stroke="#292929" stroke-width="4" stroke-linejoin="round"/>
<path d="M56.5147 106.259L19.6636 69.4209L4.92826 84.1614L41.7794 121L56.5147 106.259Z" stroke="#292929" stroke-width="4" stroke-linejoin="round"/>
<path d="M91.5234 93.373L97.0467 98.8963" stroke="#292929" stroke-width="4" stroke-linejoin="round"/>
<path d="M17.8451 82.3267L21.5186 86.0001" stroke="#292929" stroke-width="4" stroke-linejoin="round"/>
<path d="M49.161 36.2646L40.1987 27.3023C42.2569 20.6066 40.6416 13.0252 35.3528 7.71032C29.3345 1.69205 20.3983 0.441478 13.1295 3.90655L27.0679 17.845L17.8451 27.0678L3.90667 13.1293C0.441605 20.3982 1.69216 29.3344 7.71043 35.3527C12.2176 39.8599 18.3922 41.6836 24.2802 40.8499L30.7414 47.3111" stroke="#292929" stroke-width="4" stroke-linejoin="round"/>
</svg>
