<svg width="109" height="79" viewBox="0 0 109 79" fill="none" xmlns="http://www.w3.org/2000/svg">
<path d="M2 61.0909H106.545V67.9091C106.545 72.9319 102.477 77 97.4546 77H11.0909C6.06818 77 2 72.9319 2 67.9091V61.0909Z" stroke="currentColor" stroke-width="4" stroke-linejoin="round"/>
<path d="M47.4546 67.9091H61.0909" stroke="currentColor" stroke-width="4" stroke-linejoin="round"/>
<path d="M13.3636 2H95.1818C97.6818 2 99.7273 4.04545 99.7273 6.54545V61.0909H8.81818V6.54545C8.81818 4.04545 10.8636 2 13.3636 2Z" stroke="currentColor" stroke-width="4" stroke-linejoin="round"/>
<path d="M90.6364 54.2727V45.1818H83C82.2728 42.0681 81.0455 39.1591 79.4091 36.5227L84.8182 31.1136L75.1819 21.4772L69.7728 26.8863C67.1364 25.25 63.3864 24.0227 61.1137 23.2954V15.6591H47.4773V23.2954C44.3637 24.0227 41.4546 25.25 38.8182 26.8863L33.4091 21.4772L23.7727 31.1136L29.1818 36.5227C27.5455 39.1591 26.3182 42.0909 25.5909 45.1818H17.9546V54.2727" stroke="currentColor" stroke-width="4" stroke-linejoin="round"/>
<path d="M72.4546 54.2728C72.4546 44.2273 64.3182 36.0909 54.2727 36.0909C44.2273 36.0909 36.0909 44.2273 36.0909 54.2728" stroke="currentColor" stroke-width="4" stroke-linejoin="round"/>
</svg>
