<svg width="108" height="84" viewBox="0 0 108 84" fill="none" xmlns="http://www.w3.org/2000/svg">
<path d="M2 65.5295V53.7648H9.05882V44.353C9.05882 26.8 19.7412 13.1295 34.9412 6.70593V23.1765" stroke="currentColor" stroke-width="4" stroke-linejoin="round"/>
<path d="M98.4706 60.8235V65.5294C98.4706 72.8235 79.2706 82 53.7647 82C28.2588 82 9.05884 72.8235 9.05884 65.5294V60.8235" stroke="currentColor" stroke-width="4" stroke-linejoin="round"/>
<path d="M89.0588 60.8235C82.8706 63.5058 70.4706 65.5294 53.7647 65.5294C37.0588 65.5294 24.6588 63.5058 18.4706 60.8235" stroke="currentColor" stroke-width="4" stroke-linejoin="round"/>
<path d="M63.1765 27.8824V2H53.7647H44.353V27.8824" stroke="currentColor" stroke-width="4" stroke-linejoin="round"/>
<path d="M105.529 65.5295V53.7648H98.4706V44.353C98.4706 26.8 87.7883 13.1295 72.5883 6.70593V23.1765" stroke="currentColor" stroke-width="4" stroke-linejoin="round"/>
</svg>
