<svg width="109" height="106" viewBox="0 0 109 106" fill="none" xmlns="http://www.w3.org/2000/svg">
<path d="M39.9535 80.2791L18.6046 101.628V104H87.3953V35.2094H85.0232L66.0465 54.1861" stroke="currentColor" stroke-width="4" stroke-linejoin="round"/>
<path d="M66.0465 70.7907L73.1628 63.6744H75.5349V92.1396H47.0698V89.7675L56.5581 80.2791" stroke="currentColor" stroke-width="4" stroke-linejoin="round"/>
<path d="M96.8837 11.4884V89.7675L101.628 101.628L106.372 89.7675V11.4884C106.372 10.1838 105.305 9.11633 104 9.11633H99.2558C97.9512 9.11633 96.8837 10.1838 96.8837 11.4884Z" stroke="currentColor" stroke-width="4" stroke-linejoin="round"/>
<path d="M106.372 18.6046H96.8837" stroke="currentColor" stroke-width="4" stroke-linejoin="round"/>
<path d="M56.5581 11.4884H11.4884V70.7907H56.5581V11.4884Z" stroke="currentColor" stroke-width="4" stroke-linejoin="round"/>
<path d="M11.4884 28.093H56.5581" stroke="currentColor" stroke-width="4" stroke-linejoin="round"/>
<path d="M11.4884 42.3256H56.5581" stroke="currentColor" stroke-width="4" stroke-linejoin="round"/>
<path d="M11.4884 56.5581H39.9535" stroke="currentColor" stroke-width="4" stroke-linejoin="round"/>
<path d="M25.7209 70.7907V28.093" stroke="currentColor" stroke-width="4" stroke-linejoin="round"/>
<path d="M39.9535 70.7907V28.093" stroke="currentColor" stroke-width="4" stroke-linejoin="round"/>
<path d="M56.5581 11.4884H11.4884V28.0931H56.5581V11.4884Z" stroke="currentColor" stroke-width="4" stroke-linejoin="round"/>
<path d="M66.0465 2H2V80.2791H66.0465V2Z" stroke="currentColor" stroke-width="4" stroke-linejoin="round"/>
</svg>
