<svg width="109" height="107" viewBox="0 0 109 107" fill="none" xmlns="http://www.w3.org/2000/svg">
<path d="M38.2357 61.9701V25.7344" stroke="currentColor" stroke-width="4" stroke-linejoin="round"/>
<path d="M26.9121 25.7344V61.9701" stroke="currentColor" stroke-width="4" stroke-linejoin="round"/>
<path d="M26.912 59.7053V61.9701L24.6473 68.7642V98.2058L22.3826 102.735V105H42.7652V102.735L40.5004 98.2058V68.7642L38.2357 61.9701H31.4415" stroke="currentColor" stroke-width="4" stroke-linejoin="round"/>
<path d="M51.8241 21.2049C50.3294 21.2049 48.5629 16.6754 45.0299 16.6754C42.4255 16.6754 38.2357 18.9402 38.2357 25.7344H26.912C26.912 25.7344 25.7797 16.6754 20.1179 16.6754C10.8325 16.6754 9.72273 18.1701 6.52946 21.2049C6.52946 21.2049 3.40413 18.4419 2 16.6754C9.65479 7.48062 15.4525 3.08704 24.6473 3.08704H35.971C39.3454 3.08704 41.8593 7.6165 45.0299 7.6165C49.0158 7.6165 50.1935 3.08704 54.0888 3.08704H58.6183V21.2049H51.8241Z" stroke="currentColor" stroke-width="4" stroke-linejoin="round"/>
<path d="M85.7951 105C82.0356 105 79.0009 101.965 79.0009 98.2058V40.4099C71.097 37.6016 65.4125 32.3474 65.4125 23.4697V18.9402C65.4125 11.0136 71.7764 4.55915 79.0009 2V18.9402H92.5893V2C99.8137 4.55915 106.178 11.0136 106.178 18.9402V23.4697C106.178 32.3474 100.493 37.6016 92.5893 40.4099V98.2058C92.5893 101.965 89.5545 105 85.7951 105Z" stroke="currentColor" stroke-width="4" stroke-linejoin="round"/>
<path d="M85.795 98.2058V91.4116" stroke="currentColor" stroke-width="4" stroke-linejoin="round"/>
</svg>
