<svg width="108" height="108" viewBox="0 0 108 108" fill="none" xmlns="http://www.w3.org/2000/svg">
<path d="M60.0465 16.5116V4.41858H40.6977V15.3507C37.1665 16.2697 33.8288 17.6483 30.733 19.4623L22.9935 11.7228L9.3042 25.4121L17.0437 33.1516C15.2298 36.2232 13.827 39.5609 12.9321 43.1163H2V62.4651H12.9321C13.8512 65.9963 15.2298 69.3581 17.0437 72.4297L9.3042 80.1693L22.9935 93.8586L30.733 86.119C33.8047 87.933 37.1423 89.3358 40.6977 90.2307V101.163H60.0465V89.0697" stroke="currentColor" stroke-width="4" stroke-linejoin="round"/>
<path d="M64.8837 26.186H67.3023L79.3954 14.093" stroke="currentColor" stroke-width="4" stroke-linejoin="round"/>
<path d="M79.3954 93.907L64.8837 79.3953H50.3721C35.667 79.3953 23.7675 67.4958 23.7675 52.7907C23.7675 38.0856 35.667 26.186 50.3721 26.186" stroke="currentColor" stroke-width="4" stroke-linejoin="round"/>
<path d="M52.7907 64.8838H50.3721C43.6967 64.8838 38.2791 59.4661 38.2791 52.7908C38.2791 46.1154 43.6967 40.6977 50.3721 40.6977H69.7209L79.3953 31.0233H91.4884" stroke="currentColor" stroke-width="4" stroke-linejoin="round"/>
<path d="M91.4884 76.9767H81.8139L69.7209 64.8837H67.3023" stroke="currentColor" stroke-width="4" stroke-linejoin="round"/>
<path d="M84.2326 16.5116C88.2398 16.5116 91.4884 13.2631 91.4884 9.25581C91.4884 5.24854 88.2398 2 84.2326 2C80.2253 2 76.9767 5.24854 76.9767 9.25581C76.9767 13.2631 80.2253 16.5116 84.2326 16.5116Z" stroke="currentColor" stroke-width="4" stroke-linejoin="round"/>
<path d="M98.7442 38.2791C102.751 38.2791 106 35.0305 106 31.0233C106 27.016 102.751 23.7675 98.7442 23.7675C94.7369 23.7675 91.4884 27.016 91.4884 31.0233C91.4884 35.0305 94.7369 38.2791 98.7442 38.2791Z" stroke="currentColor" stroke-width="4" stroke-linejoin="round"/>
<path d="M98.7442 60.0465C102.751 60.0465 106 56.798 106 52.7907C106 48.7835 102.751 45.5349 98.7442 45.5349C94.7369 45.5349 91.4884 48.7835 91.4884 52.7907C91.4884 56.798 94.7369 60.0465 98.7442 60.0465Z" stroke="currentColor" stroke-width="4" stroke-linejoin="round"/>
<path d="M98.7442 84.2326C102.751 84.2326 106 80.984 106 76.9768C106 72.9695 102.751 69.7209 98.7442 69.7209C94.7369 69.7209 91.4884 72.9695 91.4884 76.9768C91.4884 80.984 94.7369 84.2326 98.7442 84.2326Z" stroke="currentColor" stroke-width="4" stroke-linejoin="round"/>
<path d="M84.2326 106C88.2398 106 91.4884 102.751 91.4884 98.7442C91.4884 94.7369 88.2398 91.4884 84.2326 91.4884C80.2253 91.4884 76.9767 94.7369 76.9767 98.7442C76.9767 102.751 80.2253 106 84.2326 106Z" stroke="currentColor" stroke-width="4" stroke-linejoin="round"/>
<path d="M67.3023 52.7906H89.0698" stroke="currentColor" stroke-width="4" stroke-linejoin="round"/>
<path d="M47.9535 52.7906H52.7907" stroke="currentColor" stroke-width="4" stroke-linejoin="round"/>
<path d="M57.6279 52.7906H62.4651" stroke="currentColor" stroke-width="4" stroke-linejoin="round"/>
<path d="M57.6279 64.8837H62.4651" stroke="currentColor" stroke-width="4" stroke-linejoin="round"/>
<path d="M55.2093 26.186H60.0465" stroke="currentColor" stroke-width="4" stroke-linejoin="round"/>
</svg>
