<svg width="108" height="116" viewBox="0 0 108 116" fill="none" xmlns="http://www.w3.org/2000/svg">
<path d="M103.073 64.8292V73.0243H91.2449C90.2615 77.5043 88.4859 81.6839 86.082 85.4263L94.4683 93.8126L82.8858 105.395L74.4995 97.0087C70.7571 99.4126 66.5776 101.188 62.0976 102.172V114H45.7073V102.172C41.2273 101.188 37.0478 99.4126 33.3054 97.0087L24.919 105.395L13.3366 93.8126L21.7229 85.4263C19.319 81.6839 17.5434 77.5043 16.56 73.0243H4.73172V64.8292" stroke="currentColor" stroke-width="4" stroke-linejoin="round"/>
<path d="M32.0488 64.8292C32.0488 76.9034 41.8283 86.6829 53.9024 86.6829C65.9766 86.6829 75.7561 76.9034 75.7561 64.8292" stroke="currentColor" stroke-width="4" stroke-linejoin="round"/>
<path d="M105.805 45.7073V56.6341H53.9024H2V45.7073" stroke="currentColor" stroke-width="4" stroke-linejoin="round"/>
<path d="M42.9756 32.0488V2H64.8293V32.0488" stroke="currentColor" stroke-width="4" stroke-linejoin="round"/>
<path d="M32.0488 23.8536V7.46338C18.9366 14.757 10.1951 26.039 10.1951 42.9756V48.439" stroke="currentColor" stroke-width="4" stroke-linejoin="round"/>
<path d="M97.6098 48.439V42.9756C97.6098 25.957 89.0595 14.7297 75.7561 7.46338V23.8536" stroke="currentColor" stroke-width="4" stroke-linejoin="round"/>
</svg>
