<svg width="109" height="108" viewBox="0 0 109 108" fill="none" xmlns="http://www.w3.org/2000/svg">
<path d="M49.9472 65.4502L14.2946 101.103C11.4837 103.914 6.91904 103.914 4.10815 101.103" stroke="currentColor" stroke-width="4" stroke-linejoin="round"/>
<path d="M54.7521 40.2723L61.8874 33.137C58.0435 25.1128 57.7312 16.8964 64.386 10.2415L67.7735 6.85406C73.7076 0.919972 83.3174 0.847914 90.669 4.35551L77.9599 17.0645L88.1464 27.251L100.855 14.5419C104.363 21.8935 104.291 31.5033 98.3568 37.4374C97.6841 38.1101 95.5219 40.2724 94.9694 40.8249C88.3145 47.4798 80.1221 47.1675 72.0739 43.3235L65.5632 49.8342" stroke="currentColor" stroke-width="4" stroke-linejoin="round"/>
<path d="M4.10816 101.103C1.29728 98.2918 1.29728 93.7271 4.10816 90.9162L40.3373 54.687" stroke="currentColor" stroke-width="4" stroke-linejoin="round"/>
<path d="M9.20139 96.0095L14.2946 90.9163" stroke="currentColor" stroke-width="4" stroke-linejoin="round"/>
<path d="M64.9385 71.6246L25.8745 32.5605L17.3698 30.8548L3.77179 10.4818L10.5707 3.68286L30.9677 17.2568L32.6734 25.7615L71.7376 64.8256" stroke="currentColor" stroke-width="4" stroke-linejoin="round"/>
<path d="M59.8694 76.7418L76.8548 59.7563L81.948 61.4621C81.948 61.4621 83.6297 69.9428 83.6538 69.9668L104.027 90.3157C106.838 93.1266 106.838 97.6913 104.027 100.502L100.639 103.89C97.8283 106.701 93.2636 106.701 90.4527 103.89L70.0798 83.5167L61.5991 81.811C61.5991 81.811 59.8694 76.7418 59.8934 76.7177L59.8694 76.7418Z" stroke="currentColor" stroke-width="4" stroke-linejoin="round"/>
<path d="M75.125 75.0359L95.5219 95.4088" stroke="currentColor" stroke-width="4" stroke-linejoin="round"/>
</svg>
