<svg preserveAspectRatio="none" width="100%" height="100%" overflow="visible" style="display: block;" viewBox="0 0 201 42.0698" fill="none" xmlns="http://www.w3.org/2000/svg">
<g id="Vector">
<path id="Vector_2" d="M24.1591 24.0109L30.1639 18.0208L24.1591 12.0308L18.1544 18.0208L24.1591 24.0109ZM18.1225 30.0643L12.1082 24.0489L6.04296 30.039L0 24.0267L24.1591 0L48.3023 24.0458L42.2816 30.0358L36.2801 24.0458L30.2148 30.0992L36.2164 36.0829L30.2148 42.0698L24.0477 36.0829L18.1257 42.0698L12.0732 36.0988L18.1257 30.0612L18.1225 30.0643Z" fill="var(--fill-0, #6B6B6B)"/>
<path id="Vector_3" d="M147.778 16.8895V21.0333H144.713V33.5H138.57V21.0333H135.502V33.5H129.365V21.0333H126.297V33.5H111.963L109.908 29.353V21.0333H105.792V33.5H99.656V8.56977H116.045V12.7136H105.792V16.8895H116.045V29.353H120.129V16.8895H129.369V12.7136H135.505V16.8895H138.573V12.7136H144.716V16.8895H147.781H147.778ZM97.6264 21.0076H91.4901V25.1803H97.6264V21.0076ZM173.374 8.56977H167.238V12.7168H173.374V8.56977ZM173.374 33.5V16.8895L167.241 16.8606V33.5H173.374ZM191.796 21.0333V33.5H185.659V21.0333H182.588V33.5H176.445V16.8895H198.98L201 21.0333V33.5H194.864V21.0333H191.796ZM89.432 8.56977H83.2925V33.5H89.432V8.56977ZM153.92 21.0333H158.033V29.353H153.92V21.0333ZM164.173 33.5V16.8895H149.836L147.778 21.0333V29.353L149.836 33.5H164.173ZM74.0881 33.5H80.2244V8.56977H68.9618L60.7674 33.5H66.9037L69.975 25.2092H74.0881V33.5ZM74.0881 12.7136V21.0333H70.9851L74.0881 12.7136Z" fill="var(--fill-0, #6B6B6B)"/>
</g>
</svg>

