<svg width="228" height="64" viewBox="0 0 228 64" fill="none" xmlns="http://www.w3.org/2000/svg">
<path d="M27.4044 35.2362L34.2157 28.4415L27.4044 21.6469L20.593 28.4415L27.4044 35.2362ZM20.5569 42.1028L13.7347 35.2794L6.85471 42.074L0 35.2542L27.4044 8L54.7907 35.2758L47.9613 42.0704L41.1535 35.2758L34.2735 42.1424L41.0813 48.9299L34.2735 55.7209L27.278 48.9299L20.5605 55.7209L13.695 48.9479L20.5605 42.0992L20.5569 42.1028Z" fill="#6B6B6B"/>
<path d="M167.628 27.1582V31.8586H164.152V46H157.184V31.8586H153.704V46H146.743V31.8586H143.263V46H127.003L124.672 41.2959V31.8586H120.003V46H113.043V17.7209H131.633V22.4213H120.003V27.1582H131.633V41.2959H136.266V27.1582H146.747V22.4213H153.707V27.1582H157.187V22.4213H164.155V27.1582H167.632H167.628ZM110.74 31.8295H103.78V36.5627H110.74V31.8295ZM196.663 17.7209H189.702V22.425H196.663V17.7209ZM196.663 46V27.1582L189.706 27.1254V46H196.663ZM217.559 31.8586V46H210.599V31.8586H207.115V46H200.147V27.1582H225.709L228 31.8586V46H221.039V31.8586H217.559ZM101.445 17.7209H94.4811V46H101.445V17.7209ZM174.596 31.8586H179.262V41.2959H174.596V31.8586ZM186.226 46V27.1582H169.963L167.628 31.8586V41.2959L169.963 46H186.226ZM84.0402 46H91.0008V17.7209H78.2254L68.9302 46H75.8908L79.3747 36.5955H84.0402V46ZM84.0402 22.4213V31.8586H80.5204L84.0402 22.4213Z" fill="#6B6B6B"/>
</svg>
